<?xml version="1.0" standalone="no"?><!DOCTYPE svg PUBLIC "-//W3C//DTD SVG 1.1//EN" "http://www.w3.org/Graphics/SVG/1.1/DTD/svg11.dtd"><svg t="1724314013986" class="icon" viewBox="0 0 1024 1024" version="1.1" xmlns="http://www.w3.org/2000/svg" p-id="4595" xmlns:xlink="http://www.w3.org/1999/xlink" width="64" height="64"><path d="M512 512m-512 0a512 512 0 1 0 1024 0 512 512 0 1 0-1024 0Z" fill="#FFFFFF" p-id="4596"></path><path d="M0 512c0 70.4 12.8 134.4 38.4 192h947.2c25.6-57.6 38.4-128 38.4-192 0-57.6-12.8-115.2-32-172.8H32C12.8 396.8 0 454.4 0 512z" fill="#001EF1" p-id="4597"></path><path d="M38.4 704c76.8 185.6 262.4 320 473.6 320s396.8-134.4 473.6-320H38.4z" fill="#EA3224" p-id="4598"></path></svg>